<svg xmlns="http://www.w3.org/2000/svg" width="30" height="22" fill="none" viewBox="0 0 30 22">
  <path fill="#98989A" d="M28.417 11c0-.454-.149-.879-.4-1.194v-.001c-1.125-1.375-2.954-3.38-5.23-5.038C20.498 3.1 17.824 1.833 15 1.833S9.503 3.101 7.216 4.767C4.939 6.425 3.108 8.43 1.982 9.805l.001.001A1.93 1.93 0 0 0 1.584 11c0 .452.147.875.395 1.19 1.126 1.375 2.957 3.383 5.237 5.043 2.287 1.666 4.96 2.933 7.785 2.933 2.824 0 5.498-1.267 7.785-2.933 2.279-1.66 4.11-3.669 5.234-5.043.249-.315.397-.738.397-1.19Zm-9.798 0c0-2.027-1.627-3.658-3.618-3.658-1.991 0-3.617 1.631-3.617 3.657 0 2.027 1.626 3.658 3.617 3.659 1.991 0 3.618-1.632 3.618-3.659Zm11.298 0a3.42 3.42 0 0 1-.725 2.127l-.597-.474.044.035.553.44-.006.008-.474.566c-1.184 1.385-2.922 3.199-5.043 4.744-2.418 1.76-5.4 3.22-8.668 3.22-3.268 0-6.25-1.46-8.669-3.22-2.121-1.545-3.86-3.36-5.043-4.745l-.473-.565-.006-.008A3.428 3.428 0 0 1 .084 11c0-.773.252-1.532.726-2.128l.006-.008.58.475.01.008-.59-.483c1.168-1.427 3.092-3.544 5.516-5.31 2.418-1.761 5.4-3.22 8.669-3.22 3.268 0 6.25 1.459 8.668 3.22 2.424 1.766 4.349 3.883 5.517 5.31l.006.008-.587.467-.01.008.597-.475c.474.596.725 1.355.725 2.128Zm-9.798 0c0 2.841-2.285 5.158-5.118 5.158-2.832 0-5.117-2.317-5.117-5.159 0-2.841 2.285-5.157 5.117-5.157 2.833 0 5.118 2.316 5.118 5.157Z"/>
</svg>
