<svg xmlns="http://www.w3.org/2000/svg" width="20" height="20" fill="none" viewBox="0 0 20 20">
  <path fill="#FFCE22" d="M7.941 1.943c.773-1.318 2.678-1.318 3.451 0l1.726 2.944a2 2 0 0 0 1.296.942l3.333.731c1.492.328 2.081 2.14 1.067 3.282l-2.267 2.551a2 2 0 0 0-.495 1.524l.334 3.396c.15 1.52-1.392 2.64-2.792 2.029l-3.126-1.368a2 2 0 0 0-1.603 0L5.74 19.341c-1.4.613-2.941-.507-2.792-2.028l.334-3.396a2 2 0 0 0-.495-1.524L.52 9.843C-.495 8.7.094 6.887 1.586 6.56l3.333-.731a2 2 0 0 0 1.296-.942l1.726-2.944Z"/>
</svg>
