<svg xmlns="http://www.w3.org/2000/svg" width="64" height="64" fill="none" viewBox="0 0 64 64">
  <path fill="#404040" d="M46 46c10.673-2.57 18-7.873 18-14s-7.327-11.43-18-14c1.098 4.213 1.716 8.968 1.716 14S47.098 41.787 46 46Zm-28 0C7.327 43.43 0 38.127 0 32s7.327-11.43 18-14c-1.098 4.213-1.716 8.968-1.716 14s.618 9.787 1.716 14Z"/>
  <path fill="#FFD11A" d="M18 46c2.57 10.673 7.873 18 14 18s11.43-7.327 14-18c-4.213 1.098-8.968 1.716-14 1.716S22.213 47.098 18 46Zm0-28C20.57 7.327 25.873 0 32 0s11.43 7.327 14 18c-4.213-1.098-8.968-1.716-14-1.716s-9.787.618-14 1.716Z"/>
</svg>
