<svg xmlns="http://www.w3.org/2000/svg" width="22" height="22" fill="none" viewBox="0 0 22 22">
  <path fill="#fff" d="M19.865.6H2.135A1.535 1.535 0 0 0 .6 2.135v17.73A1.536 1.536 0 0 0 2.136 21.4h17.729a1.536 1.536 0 0 0 1.535-1.536V2.135A1.536 1.536 0 0 0 19.865.6ZM6.8 18.319H3.672V8.385H6.8v9.934ZM5.234 7.009a1.795 1.795 0 1 1 1.805-1.794 1.77 1.77 0 0 1-1.805 1.794Zm13.092 11.318H15.2V12.9c0-1.6-.68-2.094-1.558-2.094-.927 0-1.837.7-1.837 2.135v5.386H8.677V8.392h3.008V9.77h.04c.302-.611 1.36-1.655 2.973-1.655 1.745 0 3.63 1.035 3.63 4.069l-.002 6.144Z"/>
</svg>
