<svg xmlns="http://www.w3.org/2000/svg" width="24" height="15" fill="none" viewBox="0 0 24 15">
  <path fill="#fff" d="M13.537 7.228c0 3.77-3.03 6.828-6.768 6.828S0 10.998 0 7.228C0 3.458 3.03.4 6.769.4c3.738 0 6.768 3.057 6.768 6.828Zm7.426.001c0 3.549-1.516 6.427-3.385 6.427-1.869 0-3.384-2.878-3.384-6.427 0-3.55 1.515-6.428 3.384-6.428 1.87 0 3.384 2.877 3.384 6.428M24 7.228c0 3.18-.533 5.758-1.19 5.758-.658 0-1.19-2.578-1.19-5.758s.532-5.758 1.19-5.758c.657 0 1.19 2.578 1.19 5.758Z"/>
</svg>
