<svg xmlns="http://www.w3.org/2000/svg" width="50" height="50" fill="none" viewBox="0 0 50 50">
  <path fill="#FFD11A" d="M28.927 34.417h-7.805V50h7.805V34.417Zm0-34.417h-7.805v15.583h7.805V0Zm5.483 21.095V28.9h15.583v-7.805H34.41ZM0 21.102v7.805h15.583v-7.805H0Z"/>
  <path fill="#404040" d="m34.425 28.877-5.52 5.52 11.02 11.018 5.518-5.52-11.018-11.018ZM10.09 4.546l-5.519 5.519 11.02 11.019 5.519-5.52L10.09 4.547Zm18.796 11.042 5.52 5.52 11.018-11.02-5.52-5.519-11.018 11.02ZM4.557 39.92l5.52 5.519L21.096 34.42l-5.52-5.52L4.557 39.92Z"/>
</svg>
