<svg xmlns="http://www.w3.org/2000/svg" width="41" height="40" fill="none" viewBox="0 0 41 40">
  <path fill="#FFD11A" d="M20.334 30c0 5.523 4.477 10 10 10 5.522 0 10-4.477 10-10s-4.478-10-10-10h-10v10Zm0-20c0-5.523-4.478-10-10-10-5.523 0-10 4.477-10 10s4.477 10 10 10h10V10Z"/>
  <path fill="#404040" fill-rule="evenodd" d="M30.334 0c-5.523 0-10 4.477-10 10v10h10c5.522 0 10-4.477 10-10s-4.478-10-10-10Zm5 10a5 5 0 1 1-10 0 5 5 0 0 1 10 0Zm-25 30c5.522 0 10-4.477 10-10V20h-10c-5.523 0-10 4.477-10 10s4.477 10 10 10Zm5-10a5 5 0 1 1-10 0 5 5 0 0 1 10 0Z" clip-rule="evenodd"/>
</svg>
