<svg width="48" height="49" viewBox="0 0 48 49" fill="none" xmlns="http://www.w3.org/2000/svg">
<path d="M0 16.9997C0 23.6555 3.94088 29.3908 9.61654 31.9997H0C0 41.1124 7.3873 48.4997 16.5 48.4997C23.1558 48.4997 28.8912 44.5588 31.5 38.8831V48.4997C40.6127 48.4997 48 41.1124 48 31.9997C48 25.3439 44.0591 19.6085 38.3835 16.9997H48C48 7.88697 40.6127 0.499664 31.5 0.499664C24.8442 0.499664 19.1088 4.44054 16.5 10.1162V0.499664C7.3873 0.499664 0 7.88697 0 16.9997Z" fill="#404040"/>
<path d="M31.5 24.4998C31.5 28.6419 28.1421 31.9998 24 31.9998C19.8579 31.9998 16.5 28.6419 16.5 24.4998C16.5 20.3577 19.8579 16.9998 24 16.9998C28.1421 16.9998 31.5 20.3577 31.5 24.4998Z" fill="#FFD11A"/>
</svg>
