<svg width="48" height="49" viewBox="0 0 48 49" fill="none" xmlns="http://www.w3.org/2000/svg">
<path d="M24 12.5C24 19.1274 18.6274 24.5 12 24.5C5.37258 24.5 0 19.1274 0 12.5C0 5.87258 5.37258 0.5 12 0.5C18.6274 0.5 24 5.87258 24 12.5Z" fill="#404040"/>
<path d="M48 12.5C48 19.1274 42.6274 24.5 36 24.5C29.3726 24.5 24 19.1274 24 12.5C24 5.87258 29.3726 0.5 36 0.5C42.6274 0.5 48 5.87258 48 12.5Z" fill="#FFD11A"/>
<path d="M48 36.5C48 43.1274 42.6274 48.5 36 48.5C29.3726 48.5 24 43.1274 24 36.5C24 29.8726 29.3726 24.5 36 24.5C42.6274 24.5 48 29.8726 48 36.5Z" fill="#404040"/>
<path d="M24 36.5C24 43.1274 18.6274 48.5 12 48.5C5.37258 48.5 0 43.1274 0 36.5C0 29.8726 5.37258 24.5 12 24.5C18.6274 24.5 24 29.8726 24 36.5Z" fill="#FFD11A"/>
</svg>
